<svg xmlns="http://www.w3.org/2000/svg" viewBox="0 0 60 60" version="1.0"><path style="stroke-linejoin:round;stroke:#fff;stroke-linecap:round;stroke-width:5;fill:none" transform="translate(50)" d="M-12.5 11.7v7.8a16 16 0 0 1-7.6 30.2 16 16 0 0 1-7.4-30.2v-7.7a23.3 23.3 0 0 0-15.4 25.4A23.3 23.3 0 0 0-20.2 57a23.3 23.3 0 0 0 7.8-45.1h-.1z"/><path style="stroke-linejoin:round;stroke:#fff;stroke-linecap:round;stroke-width:12.5;fill:none" transform="translate(50)" d="M-20 6.9v24.5"/><path style="fill-rule:evenodd;fill:#000" transform="translate(1.4 1.5) scale(.95176)" d="M37.9 10.7V19a16.8 16.8 0 0 1-8 31.7A16.8 16.8 0 0 1 22 18.8v-8A24.4 24.4 0 0 0 6 37.5a24.4 24.4 0 0 0 23.9 20.7A24.4 24.4 0 0 0 38 10.8h-.1z"/><path style="stroke-linejoin:round;stroke:#000;stroke-linecap:round;stroke-width:7.9794;fill:none" transform="translate(1.8 3.8) scale(.93992)" d="M30 3.3v26"/></svg>
