<svg width="158px" height="35px" viewBox="0 0 158 35" version="1.1" xmlns="http://www.w3.org/2000/svg" xmlns:xlink="http://www.w3.org/1999/xlink">
  <g id="Artboard" stroke="none" stroke-width="1" fill="none" fill-rule="evenodd">
    <path d="M114.175926,11.2716763 C115.384259,11.2716763 116.189815,11.8265896 116.861111,12.6589595 L116.99537,11.5491329 L119.949074,11.5491329 L119.949074,24.7283237 C119.949074,26.3930636 119.546296,27.6416185 118.606481,28.6127168 C117.666667,29.4450867 116.458333,30 114.578704,30 L112.430556,29.4450867 C111.814169,29.2160173 111.261153,28.8350675 110.819444,28.3352601 L111.893519,26.1156069 C112.162037,26.5317919 112.564815,26.8092486 113.236111,26.9479769 C113.594136,27.194605 113.95216,27.2220081 114.40448,27.2250529 L114.578704,27.2254335 C115.25,27.2254335 115.921296,27.2254335 116.189815,26.6705202 C116.458333,26.3930636 116.592593,25.8381503 116.726852,25.0057803 L116.726852,23.7572254 C116.055556,24.7283237 115.25,25.1445087 114.175926,25.1445087 C112.833333,25.1445087 111.759259,24.5895954 110.953704,23.4797688 C110.282407,22.3699422 109.87963,20.7052023 109.87963,18.9017341 L109.87963,17.7919075 C109.87963,15.5722543 110.282407,13.9075145 110.953704,12.9364162 C111.759259,11.8265896 112.833333,11.2716763 114.175926,11.2716763 Z M75.375,11.2716763 C76.4490741,11.2716763 77.3888889,11.8265896 78.0601852,12.6589595 L78.0601852,11.5491329 L81.1481481,11.5491329 L81.1481481,24.7283237 C81.1481481,26.3930636 80.7453704,27.6416185 79.8055556,28.6127168 C78.8657407,29.4450867 77.5231481,30 75.7777778,30 L73.6296296,29.4450867 C72.9649637,29.2368279 72.3637112,28.8545101 71.8842593,28.3352601 L73.0925926,25.9768786 C73.3611111,26.3930636 73.7638889,26.6705202 74.3009259,26.8092486 C74.7782922,27.0558767 75.149577,27.0832798 75.5090751,27.0863246 L75.6435185,27.0867052 C76.4490741,27.0867052 76.9861111,27.0867052 77.3888889,26.5317919 C77.6574074,26.2543353 77.7916667,25.699422 77.7916667,24.867052 L77.7916667,23.6184971 C77.2546296,24.5895954 76.4490741,25.0057803 75.375,25.0057803 C74.0324074,25.0057803 72.9583333,24.4508671 72.1527778,23.3410405 C71.4814815,22.2312139 71.0787037,20.566474 71.0787037,18.7630058 L71.0787037,17.7919075 C71.0787037,15.5722543 71.4814815,13.9075145 72.1527778,12.9364162 C72.9583333,11.8265896 74.0324074,11.2716763 75.375,11.2716763 Z M86.25,11.2716763 C87.4583333,11.2716763 88.3981481,11.8265896 88.9351852,12.6589595 L89.0694444,11.5491329 L92.1574074,11.5491329 L92.1574074,24.7283237 C92.1574074,26.3930636 91.6203704,27.6416185 90.8148148,28.6127168 C89.875,29.4450867 88.5324074,30 86.787037,30 C86.1157407,30 85.4444444,29.7225434 84.6388889,29.4450867 C83.974223,29.2368279 83.3729704,28.8545101 82.8935185,28.3352601 L83.9675926,25.9768786 C84.3703704,26.3930636 84.7731481,26.6705202 85.3101852,26.8092486 C85.6626157,27.0520231 86.1178385,27.0823699 86.4959672,27.0861633 L86.6527778,27.0867052 C87.4583333,27.0867052 87.9953704,27.0867052 88.2638889,26.5317919 C88.6666667,26.2543353 88.8009259,25.699422 88.8009259,24.867052 L88.8009259,23.6184971 C88.1296296,24.5895954 87.3240741,25.0057803 86.25,25.0057803 C84.9074074,25.0057803 83.8333333,24.4508671 83.162037,23.3410405 C82.3564815,22.2312139 81.9537037,20.566474 81.9537037,18.7630058 L81.9537037,17.7919075 C81.9537037,15.5722543 82.3564815,13.9075145 83.162037,12.9364162 C83.8333333,11.8265896 84.9074074,11.2716763 86.25,11.2716763 Z M53.3564815,6 L53.3564815,12.6589595 C54.0277778,11.6878613 54.6990741,11.2716763 55.7731481,11.2716763 C57.25,11.2716763 58.3240741,11.8265896 58.9953704,12.9364162 C59.6666667,13.9075145 59.9351852,15.433526 59.9351852,17.5144509 L59.9351852,18.6242775 C59.9351852,20.7052023 59.6666667,22.3699422 58.9953704,23.3410405 C58.3240741,24.4508671 57.25,25.0057803 55.9074074,25.0057803 C54.6990741,25.0057803 53.8935185,24.4508671 53.2222222,23.4797688 L53.087963,24.7283237 L50,24.7283237 L50,6 L53.3564815,6 Z M125.856481,11.2716763 C127.199074,11.2716763 128.407407,11.6878613 129.212963,12.3815029 C129.884259,13.2138728 130.287037,14.1849711 130.287037,15.7109827 L130.287037,21.8150289 C130.287037,22.9248555 130.421296,23.8959538 130.824074,24.5895954 L130.824074,24.7283237 L127.333333,24.7283237 L127.064815,23.7572254 C126.393519,24.5895954 125.722222,25.0057803 124.513889,25.0057803 C123.439815,25.0057803 122.634259,24.5895954 121.828704,23.8959538 C121.157407,23.2023121 120.888889,22.2312139 120.888889,21.1213873 C120.888889,19.734104 121.291667,18.6242775 122.231481,17.7919075 C123.037037,17.0982659 124.24537,16.6820809 125.856481,16.6820809 L126.796296,16.6820809 L126.796296,15.5722543 C126.796296,15.017341 126.796296,14.6011561 126.527778,14.3236994 C126.393519,14.0462428 126.125,14.0462428 125.722222,14.0462428 C124.916667,14.0462428 124.37963,14.4624277 124.37963,15.433526 L121.291667,15.433526 C121.291667,14.3236994 121.694444,13.2138728 122.634259,12.5202312 C123.439815,11.6878613 124.513889,11.2716763 125.856481,11.2716763 Z M104.777778,11.2716763 C106.388889,11.2716763 107.462963,11.8265896 108.402778,12.9364162 C109.208333,13.9075145 109.611111,15.5722543 109.611111,17.6531792 L109.611111,19.1791908 L102.898148,19.1791908 C102.898148,20.150289 103.166667,20.8439306 103.569444,21.2601156 C103.972222,21.6763006 104.509259,21.9537572 105.314815,21.9537572 C106.388889,21.9537572 107.328704,21.5375723 108,20.8439306 L109.342593,22.9248555 C108.939815,23.4797688 108.402778,23.8959538 107.597222,24.3121387 C106.791667,24.5895954 105.986111,24.867052 105.046296,24.867052 L105.180556,25.0057803 C103.300926,25.0057803 102.092593,24.4508671 101.152778,23.3410405 C100.078704,22.3699422 99.6759259,20.8439306 99.6759259,18.9017341 L99.6759259,17.7919075 C99.6759259,15.7109827 100.078704,14.1849711 101.018519,12.9364162 C101.824074,11.8265896 103.032407,11.2716763 104.777778,11.2716763 Z M142.573276,11.6098655 C144.310345,11.6098655 145.512931,12.1479821 146.448276,13.2242152 C147.383621,14.4349776 147.784483,15.9147982 147.784483,17.9327354 L147.784483,18.7399103 C147.784483,20.6233184 147.383621,22.103139 146.448276,23.3139013 C145.512931,24.3901345 144.310345,24.9282511 142.706897,24.9282511 C140.969828,24.9282511 139.767241,24.3901345 138.831897,23.3139013 C137.896552,22.103139 137.49569,20.6233184 137.49569,18.6053812 L137.49569,17.9327354 C137.49569,15.9147982 137.896552,14.4349776 138.831897,13.2242152 C139.767241,12.1479821 140.969828,11.6098655 142.573276,11.6098655 Z M135.25463,8.49710983 L135.25463,11.5491329 L137,11.5491329 L137,14.1849711 L135.25463,14.1849711 L135.25463,20.566474 C135.25463,21.1213873 135.25463,21.3988439 135.523148,21.6763006 L136.328704,21.9537572 L137,21.8150289 L137,24.5895954 L135.25463,24.867052 C133.106481,24.867052 131.898148,23.4797688 131.898148,20.982659 L131.898148,14.0462428 L130.555556,14.0462428 L130.555556,11.2716763 L131.898148,11.2716763 L131.898148,8.49710983 L135.25463,8.49710983 Z M70.2731481,11.4104046 L70.2731481,24.7283237 L67.1851852,24.7283237 L67.0509259,23.4797688 C66.3796296,24.4508671 65.4398148,24.867052 64.3657407,24.867052 C63.0231481,24.867052 62.2175926,24.5895954 61.6805556,23.7572254 C61.0092593,22.9248555 60.7407407,21.6763006 60.7407407,20.150289 L60.7407407,11.5491329 L63.962963,11.5491329 L63.962963,20.150289 C63.962963,21.5375723 64.5,22.0924855 65.3055556,22.0924855 C65.9768519,22.0924855 66.6481481,21.8150289 66.9166667,21.1213873 L66.9166667,11.4104046 L70.2731481,11.4104046 Z M98.7361111,11.2716763 L99.6759259,11.4104046 L99.6759259,14.8786127 L98.4675926,14.8786127 C97.662037,14.8786127 97.125,15.1560694 96.7222222,15.9884393 L96.7222222,24.7283237 L93.3657407,24.7283237 L93.3657407,11.5491329 L96.4537037,11.5491329 L96.4537037,12.9364162 C97.125,11.8265896 97.7962963,11.2716763 98.7361111,11.2716763 Z M154.064655,11.6098655 L155,11.7443946 L155,15.1076233 L153.797414,15.1076233 C152.862069,15.1076233 152.327586,15.3766816 151.926724,16.1838565 L151.926724,24.6591928 L148.719828,24.6591928 L148.719828,11.8789238 L151.793103,11.8789238 L151.793103,13.2242152 C152.461207,12.1479821 153.12931,11.6098655 154.064655,11.6098655 Z M126.796296,18.7630058 L125.990741,18.7630058 C125.453704,18.7630058 125.050926,18.9017341 124.648148,19.3179191 C124.37963,19.734104 124.24537,20.150289 124.24537,20.7052023 C124.24537,21.8150289 124.513889,22.2312139 125.319444,22.2312139 L126.259259,22.0924855 L126.796296,21.5375723 L126.796296,18.7630058 Z M142.706897,14.4349776 C142.038793,14.4349776 141.637931,14.7040359 141.37069,15.2421525 C140.964595,16.0774462 140.780447,17.0044428 140.836207,17.9327354 L140.836207,18.7399103 C140.836207,21.0269058 141.50431,22.103139 142.706897,22.103139 C143.775862,22.103139 144.443966,21.161435 144.443966,19.2780269 L144.443966,17.9327354 C144.541461,17.0161102 144.403428,16.0896377 144.043103,15.2421525 C143.642241,14.7040359 143.241379,14.4349776 142.706897,14.4349776 Z M87.3240741,14.1849711 C86.6527778,14.1849711 86.1157407,14.4624277 85.8472222,15.017341 C85.4391867,15.8787075 85.2541593,16.8346393 85.3101852,17.7919075 L85.3101852,18.6242775 C85.3101852,19.8728324 85.4444444,20.7052023 85.8472222,21.2601156 C86.1157407,21.8150289 86.6527778,22.0924855 87.1898148,22.0924855 C87.9953704,22.0924855 88.5324074,21.8150289 88.8009259,21.2601156 L88.8009259,15.017341 C88.3981481,14.4624277 87.9953704,14.1849711 87.3240741,14.1849711 Z M76.4490741,14.1849711 C75.6435185,14.1849711 75.1064815,14.4624277 74.837963,15.017341 C74.475916,15.8912796 74.3372239,16.8466709 74.4351852,17.7919075 L74.4351852,18.6242775 C74.4351852,19.8728324 74.4351852,20.7052023 74.837963,21.2601156 C75.1064815,21.8150289 75.6435185,22.0924855 76.3148148,22.0924855 C76.9861111,22.0924855 77.5231481,21.8150289 77.7916667,21.2601156 L77.7916667,15.017341 C77.5231481,14.4624277 76.9861111,14.1849711 76.4490741,14.1849711 Z M115.115741,14.1849711 C114.444444,14.1849711 114.041667,14.4624277 113.773148,15.017341 C113.365113,15.8787075 113.180085,16.8346393 113.236111,17.7919075 L113.236111,18.6242775 C113.236111,19.8728324 113.37037,20.7052023 113.638889,21.2601156 C114.041667,21.8150289 114.444444,22.0924855 115.115741,22.0924855 C115.787037,22.0924855 116.458333,21.8150289 116.726852,21.2601156 L116.726852,15.017341 C116.324074,14.4624277 115.787037,14.1849711 115.115741,14.1849711 Z M54.8333333,14.1849711 C54.162037,14.1849711 53.625,14.4624277 53.3564815,15.1560694 L53.3564815,21.1213873 C53.625,21.8150289 54.162037,22.0924855 54.9675926,22.0924855 C55.5046296,22.0924855 56.0416667,21.9537572 56.3101852,21.3988439 L56.5787037,18.9017341 L56.5787037,17.6531792 C56.5787037,16.265896 56.5787037,15.433526 56.1759259,14.8786127 C56.0416667,14.4624277 55.5046296,14.1849711 54.8333333,14.1849711 Z M104.643519,14.1849711 C104.106481,14.1849711 103.703704,14.3236994 103.435185,14.7398844 C103.166667,15.2947977 103.032407,15.9884393 103.032407,16.8208092 L106.25463,16.8208092 L106.25463,16.5433526 C106.25463,15.7109827 106.25463,15.1560694 105.986111,14.7398844 C105.717593,14.3236994 105.314815,14.1849711 104.643519,14.1849711 Z" id="Combined-Shape" fill="#000000" fill-rule="nonzero"></path>
    <g id="logo-short" transform="translate(2.000000, 3.000000)" fill="currentColor">
      <path d="M8.46,0 L9.04,1.68 C7.86,2.05 7.04,2.7 6.6,3.65 C6.15,4.58 5.93,5.65 5.93,6.87 L5.93,9.93 C5.93,10.91 5.73,11.81 5.32,12.62 C4.92,13.42 4.29,14.05 3.42,14.52 C2.55,14.99 1.41,15.23 8.8817842e-16,15.23 L8.8817842e-16,13.43 C1.12,13.43 1.93,13.11 2.41,12.48 C2.91,11.85 3.16,11 3.16,9.93 L3.16,6.87 C3.16,5.84 3.32,4.87 3.63,3.97 C3.96,3.07 4.51,2.27 5.27,1.6 C6.20027587,0.828973096 7.29501295,0.281604553 8.47,0 L8.46,0 Z M9.04,27.3 L8.46,29 C7.29163678,28.7085717 6.20225328,28.1621725 5.27,27.4 C4.53198331,26.7611529 3.96777708,25.9458061 3.63,25.03 C3.3081597,24.097446 3.14917377,23.1164689 3.16,22.13 L3.16,19.09 C3.16,18.37 3.05,17.75 2.83,17.23 C2.62982825,16.7187415 2.26815959,16.2868459 1.8,16 C1.25497542,15.6828455 0.629874078,15.5300429 0,15.56 L0,13.76 C1.17714314,13.7067489 2.34903192,13.9473126 3.41,14.46 C4.23215146,14.885331 4.89760005,15.5612867 5.31,16.39 C5.73,17.19 5.93,18.09 5.93,19.08 L5.93,22.12 C5.93,22.92 6.03,23.68 6.21,24.37 C6.55966906,25.7834837 7.63950577,26.9014772 9.04,27.3 L9.04,27.3 Z M32.39,1.68 L32.97,0 C34.33,0.37 35.39,0.9 36.16,1.6 C36.9004169,2.23460426 37.4622853,3.05155412 37.79,3.97 C38.11,4.87 38.27,5.84 38.27,6.87 L38.27,9.93 C38.27,10.63 38.38,11.26 38.6,11.79 C38.82,12.31 39.15,12.71 39.61,13 C40.08,13.29 40.68,13.43 41.43,13.43 L41.43,15.1 C40.03,15.1 38.89,14.88 38.02,14.43 C37.2036177,14.0321291 36.5322348,13.3887205 36.1,12.59 C35.7,11.79 35.5,10.91 35.5,9.93 L35.5,6.87 C35.5,6.07 35.4,5.31 35.22,4.62 C35.0461004,3.95073429 34.7133603,3.33327856 34.25,2.82 C33.7493096,2.27292885 33.1047232,1.87785976 32.39,1.68 L32.39,1.68 Z M32.97,29 L32.39,27.3 C33.17,27.05 33.79,26.68 34.23,26.16 C34.69,25.66 35.01,25.06 35.2,24.38 C35.4,23.68 35.5,22.94 35.5,22.13 L35.5,19.09 C35.5,18.09 35.7,17.21 36.1,16.43 C36.5295114,15.6316506 37.2019651,14.9907181 38.02,14.6 C39.0836065,14.1076335 40.2488376,13.8745872 41.42,13.92 L41.42,15.57 C40.32,15.57 39.52,15.89 39.02,16.53 C38.52,17.16 38.27,18.01 38.27,19.09 L38.27,22.13 C38.27,23.16 38.11,24.13 37.79,25.03 C37.4622853,25.9484459 36.9004169,26.7653957 36.16,27.4 C35.227418,28.1674838 34.1335362,28.7144247 32.96,29 L32.97,29 Z" id="Shape" fill-rule="nonzero"></path>
      <path d="M14.58,8.6 C14.58,5.22554018 17.3155402,2.49 20.69,2.49 C24.0644598,2.49 26.8,5.22554018 26.8,8.6 L26.8,8.96 L26.85,8.98 L28.87,6.7 C29.143381,6.39348196 29.613482,6.36661905 29.92,6.64 C30.226518,6.91338095 30.253381,7.38348196 29.98,7.69 L28.05,9.87 C28.59,10.5 28.92,11.33 28.89,12.23 L28.84,14.04 C28.83,14.39 28.81,14.74 28.77,15.09 L31.46,15.09 C31.8686907,15.09 32.2,15.4213093 32.2,15.83 C32.2,16.2386907 31.8686907,16.57 31.46,16.57 L28.55,16.57 C28.2897027,17.8438056 27.8626941,19.0777595 27.28,20.24 L26.68,21.44 L26.54,21.71 L29.21,24.43 C29.430224,24.60946 29.5282715,24.8991507 29.4623094,25.1754721 C29.3963473,25.4517934 29.1780212,25.6659609 28.9004826,25.7265975 C28.6229439,25.787234 28.3351921,25.6836341 28.16,25.46 L25.66,22.93 C24.3053077,24.4427346 22.3477404,25.2742289 20.3184853,25.1988566 C18.2892302,25.1234843 16.3987399,24.149062 15.16,22.54 L12.48,25.18 C12.1861491,25.4413668 11.7391896,25.4272325 11.4624397,25.1478216 C11.1856899,24.8684107 11.1758333,24.4213364 11.44,24.13 L14.38,21.24 C14.3698772,21.2167195 14.359877,21.1933858 14.35,21.17 L13.56,19.41 C13.1515505,18.4975114 12.8366088,17.5459852 12.62,16.57 L9.74,16.57 C9.33130929,16.57 9,16.2386907 9,15.83 C9,15.4213093 9.33130929,15.09 9.74,15.09 L12.37,15.09 L12.29,14.24 L12.18,12.34 C12.13,11.44 12.43,10.59 12.95,9.94 L10.91,7.76 C10.7295809,7.56529025 10.6667431,7.28911857 10.7451572,7.03551615 C10.8235712,6.78191373 11.031324,6.58940881 11.2901572,6.53051614 C11.5489903,6.47162347 11.8195809,6.55529025 12,6.75 L14.12,9.02 C14.27,8.95 14.42,8.89 14.58,8.84 L14.58,8.6 Z M24.6,8.6 L24.6,8.68 L16.78,8.68 L16.78,8.6 C16.78,6.44056663 18.5305666,4.69 20.69,4.69 C22.8494334,4.69 24.6,6.44056663 24.6,8.6 L24.6,8.6 Z M25.44,10.88 L15.63,10.88 C14.91,10.88 14.34,11.48 14.38,12.2 L14.5,14.11 C14.59,15.63 14.95,17.11 15.58,18.51 L16.37,20.27 C17.1013513,21.8947519 18.7018296,22.954134 20.4831817,22.9925804 C22.2645338,23.0310269 23.9092292,22.0416845 24.71,20.45 L25.31,19.25 C26.1279858,17.6102204 26.5784557,15.8117535 26.63,13.98 L26.68,12.17 C26.7,11.47 26.14,10.88 25.44,10.88 L25.44,10.88 Z" id="Shape"></path>
      <path d="M23.17,12.65 C23.48,12.35 24,12.35 24.31,12.65 C24.4606753,12.7828831 24.5469935,12.9740996 24.5469935,13.175 C24.5469935,13.3759004 24.4606753,13.5671169 24.31,13.7 L21.75,16.07 L24.51,18.61 C24.6641201,18.7429721 24.7527255,18.9364451 24.7527255,19.14 C24.7527255,19.3435549 24.6641201,19.5370279 24.51,19.67 C24.19,19.96 23.68,19.96 23.36,19.67 L20.6,17.12 L17.84,19.67 C17.52,19.96 17.01,19.96 16.69,19.67 C16.5358799,19.5370279 16.4472745,19.3435549 16.4472745,19.14 C16.4472745,18.9364451 16.5358799,18.7429721 16.69,18.61 L19.45,16.07 L16.89,13.7 C16.7393247,13.5671169 16.6530065,13.3759004 16.6530065,13.175 C16.6530065,12.9740996 16.7393247,12.7828831 16.89,12.65 C17.2,12.35 17.72,12.35 18.03,12.65 L20.6,15 L23.17,12.64 L23.17,12.65 Z" id="Path"></path>
    </g>
  </g>
</svg>
