<svg width="162px" height="149px" viewBox="0 0 162 149" version="1.1" xmlns="http://www.w3.org/2000/svg" xmlns:xlink="http://www.w3.org/1999/xlink">
    <g id="Artboard" stroke="none" stroke-width="1" fill="none" fill-rule="evenodd">
        <g id="var_dump" transform="translate(5.000000, 5.000000)">
            <g id="Group">
                <path d="M123.25,3.54545455 C137.198959,3.54545455 148.5,14.884546 148.5,28.8636364 L148.5,110.136364 C148.5,124.115454 137.198959,135.454545 123.25,135.454545 L28.75,135.454545 C14.8010408,135.454545 3.5,124.115454 3.5,110.136364 L3.5,28.8636364 C3.5,14.884546 14.8010408,3.54545455 28.75,3.54545455 L123.25,3.54545455 Z M28.75,0 C12.8755827,0 0,12.9189349 0,28.8636364 L0,110.136364 C0,126.081065 12.8755827,139 28.75,139 L123.25,139 C139.124417,139 152,126.081065 152,110.136364 L152,28.8636364 C152,21.2049896 148.968246,13.861044 143.573383,8.4480163 C138.181747,3.03822678 130.871433,0 123.25,0 L28.75,0 Z" id="Shape" stroke-opacity="0.99" stroke="currentColor" stroke-width="10"></path>
                <text id="LOG" fill="currentColor" font-family="ArialRoundedMTBold, Arial Rounded MT Bold" font-size="38" font-weight="normal">
                    <tspan x="35" y="74">LOG</tspan>
                </text>
                <path d="M34,98.5792683 C34,94.6317073 36.8,92 41,92 L111,92 C114.865993,92 118,94.9456387 118,98.5792683 C118,102.212898 114.865993,105.158537 111,105.158537 L41,105.158537 C37.1340068,105.158537 34,102.212898 34,98.5792683 Z" id="Path" fill="currentColor" fill-rule="nonzero"></path>
            </g>
        </g>
    </g>
</svg>
