<?xml version="1.0" encoding="UTF-8"?>
<svg width="162px" height="149px" viewBox="0 0 162 149" version="1.1" xmlns="http://www.w3.org/2000/svg" xmlns:xlink="http://www.w3.org/1999/xlink">
    <!-- Generator: Sketch 59.1 (86144) - https://sketch.com -->
    <title>Artboard</title>
    <desc>Created with Sketch.</desc>
    <g id="Artboard" stroke="none" stroke-width="1" fill="none" fill-rule="evenodd">
        <g id="inspector" fill-rule="nonzero" stroke="#000000" stroke-opacity="0.99" stroke-width="10">
            <path d="M128.25,8.54545455 C142.198959,8.54545455 153.5,19.884546 153.5,33.8636364 L153.5,115.136364 C153.5,129.115454 142.198959,140.454545 128.25,140.454545 L33.75,140.454545 C19.8010408,140.454545 8.5,129.115454 8.5,115.136364 L8.5,33.8636364 C8.5,19.884546 19.8010408,8.54545455 33.75,8.54545455 L128.25,8.54545455 Z M33.75,5 C17.8755827,5 5,17.9189349 5,33.8636364 L5,115.136364 C5,131.081065 17.8755827,144 33.75,144 L128.25,144 C144.124417,144 157,131.081065 157,115.136364 L157,33.8636364 C157,26.2049896 153.968246,18.861044 148.573383,13.4480163 C143.181747,8.03822678 135.871433,5 128.25,5 L33.75,5 Z" id="Shape"></path>
        </g>
        <g id="Group" transform="translate(37.000000, 42.000000)" fill="#000000">
            <text id="dump" font-family="ArialRoundedMTBold, Arial Rounded MT Bold" font-size="38" font-weight="normal" letter-spacing="3">
                <tspan x="0.562011719" y="36">VAR</tspan>
            </text>
            <path d="M3,61.5792683 C3,57.6317073 5.76666667,55 9.91666667,55 L79.0833333,55 C82.9033029,55 86,57.9456387 86,61.5792683 C86,65.2128978 82.9033029,68.1585366 79.0833333,68.1585366 L9.91666667,68.1585366 C6.09669715,68.1585366 3,65.2128978 3,61.5792683 Z" id="Path" fill-rule="nonzero"></path>
        </g>
    </g>
</svg>